<mxfile host="app.diagrams.net" modified="2023-09-29T12:19:20.505Z" agent="Mozilla/5.0 (Windows NT 10.0; Win64; x64) AppleWebKit/537.36 (KHTML, like Gecko) Chrome/117.0.0.0 Safari/537.36" etag="c83azw1ePzDxhyRhZktg" version="22.0.0" type="github">
  <diagram name="Page-1" id="2a216829-ef6e-dabb-86c1-c78162f3ba2b">
    <mxGraphModel dx="893" dy="631" grid="1" gridSize="10" guides="1" tooltips="1" connect="1" arrows="1" fold="1" page="1" pageScale="1" pageWidth="850" pageHeight="1100" background="none" math="0" shadow="0">
      <root>
        <mxCell id="0" />
        <mxCell id="1" parent="0" />
        <mxCell id="7a84cebc1def654-1" value="Customer" style="shape=mxgraph.bpmn.shape;html=1;verticalLabelPosition=bottom;labelBackgroundColor=#ffffff;verticalAlign=top;perimeter=ellipsePerimeter;outline=standard;symbol=general;" parent="1" vertex="1">
          <mxGeometry x="260" y="265" width="50" height="50" as="geometry" />
        </mxCell>
        <mxCell id="7a84cebc1def654-24" value="" style="shape=mxgraph.bpmn.shape;html=1;verticalLabelPosition=bottom;labelBackgroundColor=#ffffff;verticalAlign=top;perimeter=rhombusPerimeter;background=gateway;outline=none;symbol=parallelGw;" parent="1" vertex="1">
          <mxGeometry x="1070" y="440" width="50" height="50" as="geometry" />
        </mxCell>
        <mxCell id="7a84cebc1def654-26" value="" style="shape=mxgraph.bpmn.shape;html=1;verticalLabelPosition=bottom;labelBackgroundColor=#ffffff;verticalAlign=top;perimeter=ellipsePerimeter;outline=end;symbol=general;" parent="1" vertex="1">
          <mxGeometry x="1235" y="440.00000000000006" width="50" height="50" as="geometry" />
        </mxCell>
        <mxCell id="7a84cebc1def654-36" style="edgeStyle=orthogonalEdgeStyle;rounded=0;html=1;jettySize=auto;orthogonalLoop=1;" parent="1" source="7a84cebc1def654-1" edge="1">
          <mxGeometry relative="1" as="geometry">
            <mxPoint x="360" y="290" as="targetPoint" />
          </mxGeometry>
        </mxCell>
        <mxCell id="7a84cebc1def654-46" style="edgeStyle=orthogonalEdgeStyle;rounded=0;html=1;jettySize=auto;orthogonalLoop=1;" parent="1" source="7a84cebc1def654-24" target="7a84cebc1def654-26" edge="1">
          <mxGeometry relative="1" as="geometry" />
        </mxCell>
        <mxCell id="e09Jtm8NHtcAgi3TtUKe-1" value="" style="shape=mxgraph.bpmn.shape;html=1;verticalLabelPosition=bottom;labelBackgroundColor=#ffffff;verticalAlign=top;perimeter=ellipsePerimeter;outline=standard;symbol=general;" vertex="1" parent="1">
          <mxGeometry x="1880" y="260" width="50" height="50" as="geometry" />
        </mxCell>
        <mxCell id="e09Jtm8NHtcAgi3TtUKe-2" value="Task" style="shape=ext;rounded=1;html=1;whiteSpace=wrap;" vertex="1" parent="1">
          <mxGeometry x="1980" y="245" width="120" height="80" as="geometry" />
        </mxCell>
        <mxCell id="e09Jtm8NHtcAgi3TtUKe-3" value="Task" style="shape=ext;rounded=1;html=1;whiteSpace=wrap;" vertex="1" parent="1">
          <mxGeometry x="2150" y="245" width="120" height="80" as="geometry" />
        </mxCell>
        <mxCell id="e09Jtm8NHtcAgi3TtUKe-4" value="" style="shape=message;whiteSpace=wrap;html=1;" vertex="1" parent="1">
          <mxGeometry x="2020" y="170" width="40" height="30" as="geometry" />
        </mxCell>
        <mxCell id="e09Jtm8NHtcAgi3TtUKe-5" value="" style="shape=message;whiteSpace=wrap;html=1;" vertex="1" parent="1">
          <mxGeometry x="2190" y="170" width="40" height="30" as="geometry" />
        </mxCell>
        <mxCell id="e09Jtm8NHtcAgi3TtUKe-6" value="" style="shape=hexagon;whiteSpace=wrap;html=1;perimeter=hexagonPerimeter;" vertex="1" parent="1">
          <mxGeometry x="2180" y="370" width="60" height="50" as="geometry" />
        </mxCell>
        <mxCell id="e09Jtm8NHtcAgi3TtUKe-7" value="" style="html=1;shape=plus;" vertex="1" parent="e09Jtm8NHtcAgi3TtUKe-6">
          <mxGeometry x="0.5" y="1" width="14" height="14" relative="1" as="geometry">
            <mxPoint x="-7" y="-14" as="offset" />
          </mxGeometry>
        </mxCell>
        <mxCell id="e09Jtm8NHtcAgi3TtUKe-8" value="Task" style="shape=ext;rounded=1;html=1;whiteSpace=wrap;" vertex="1" parent="1">
          <mxGeometry x="2150" y="470" width="120" height="80" as="geometry" />
        </mxCell>
        <mxCell id="e09Jtm8NHtcAgi3TtUKe-9" value="" style="shape=mxgraph.bpmn.shape;html=1;verticalLabelPosition=bottom;labelBackgroundColor=#ffffff;verticalAlign=top;perimeter=rhombusPerimeter;background=gateway;outline=none;symbol=parallelGw;" vertex="1" parent="1">
          <mxGeometry x="2315" y="485" width="50" height="50" as="geometry" />
        </mxCell>
        <mxCell id="e09Jtm8NHtcAgi3TtUKe-10" value="Sub-Process" style="html=1;whiteSpace=wrap;rounded=1;" vertex="1" parent="1">
          <mxGeometry x="2590" y="245" width="120" height="80" as="geometry" />
        </mxCell>
        <mxCell id="e09Jtm8NHtcAgi3TtUKe-11" value="" style="html=1;shape=plus;" vertex="1" parent="e09Jtm8NHtcAgi3TtUKe-10">
          <mxGeometry x="0.5" y="1" width="14" height="14" relative="1" as="geometry">
            <mxPoint x="-7" y="-14" as="offset" />
          </mxGeometry>
        </mxCell>
        <mxCell id="e09Jtm8NHtcAgi3TtUKe-12" value="Receive" style="html=1;whiteSpace=wrap;rounded=1;" vertex="1" parent="1">
          <mxGeometry x="2400" y="245" width="120" height="80" as="geometry" />
        </mxCell>
        <mxCell id="e09Jtm8NHtcAgi3TtUKe-13" value="" style="html=1;shape=message;" vertex="1" parent="e09Jtm8NHtcAgi3TtUKe-12">
          <mxGeometry width="20" height="14" relative="1" as="geometry">
            <mxPoint x="7" y="7" as="offset" />
          </mxGeometry>
        </mxCell>
        <mxCell id="e09Jtm8NHtcAgi3TtUKe-14" value="Process" style="html=1;whiteSpace=wrap;rounded=1;" vertex="1" parent="1">
          <mxGeometry x="2525" y="470" width="120" height="80" as="geometry" />
        </mxCell>
        <mxCell id="e09Jtm8NHtcAgi3TtUKe-15" value="" style="shape=mxgraph.bpmn.timer_start;perimeter=ellipsePerimeter;html=1;labelPosition=right;labelBackgroundColor=#ffffff;align=left;" vertex="1" parent="e09Jtm8NHtcAgi3TtUKe-14">
          <mxGeometry x="1" width="30" height="30" relative="1" as="geometry">
            <mxPoint x="-15" y="10" as="offset" />
          </mxGeometry>
        </mxCell>
        <mxCell id="e09Jtm8NHtcAgi3TtUKe-16" value="Process" style="html=1;whiteSpace=wrap;rounded=1;" vertex="1" parent="1">
          <mxGeometry x="2840" y="770" width="120" height="80" as="geometry" />
        </mxCell>
        <mxCell id="e09Jtm8NHtcAgi3TtUKe-17" value="" style="shape=mxgraph.bpmn.timer_start;perimeter=ellipsePerimeter;html=1;labelPosition=right;labelBackgroundColor=#ffffff;align=left;" vertex="1" parent="e09Jtm8NHtcAgi3TtUKe-16">
          <mxGeometry x="1" width="30" height="30" relative="1" as="geometry">
            <mxPoint x="-15" y="10" as="offset" />
          </mxGeometry>
        </mxCell>
        <mxCell id="e09Jtm8NHtcAgi3TtUKe-18" value="Receive" style="html=1;whiteSpace=wrap;rounded=1;" vertex="1" parent="1">
          <mxGeometry x="2670" y="770" width="120" height="80" as="geometry" />
        </mxCell>
        <mxCell id="e09Jtm8NHtcAgi3TtUKe-19" value="" style="html=1;shape=message;" vertex="1" parent="e09Jtm8NHtcAgi3TtUKe-18">
          <mxGeometry width="20" height="14" relative="1" as="geometry">
            <mxPoint x="7" y="7" as="offset" />
          </mxGeometry>
        </mxCell>
        <mxCell id="e09Jtm8NHtcAgi3TtUKe-20" value="Sub-Process" style="html=1;whiteSpace=wrap;rounded=1;" vertex="1" parent="1">
          <mxGeometry x="2525" y="770" width="120" height="80" as="geometry" />
        </mxCell>
        <mxCell id="e09Jtm8NHtcAgi3TtUKe-21" value="" style="html=1;shape=plus;" vertex="1" parent="e09Jtm8NHtcAgi3TtUKe-20">
          <mxGeometry x="0.5" y="1" width="14" height="14" relative="1" as="geometry">
            <mxPoint x="-7" y="-14" as="offset" />
          </mxGeometry>
        </mxCell>
        <mxCell id="e09Jtm8NHtcAgi3TtUKe-22" value="" style="shape=mxgraph.bpmn.shape;html=1;verticalLabelPosition=bottom;labelBackgroundColor=#ffffff;verticalAlign=top;perimeter=rhombusPerimeter;background=gateway;outline=none;symbol=parallelGw;" vertex="1" parent="1">
          <mxGeometry x="2875" y="485" width="50" height="50" as="geometry" />
        </mxCell>
        <mxCell id="e09Jtm8NHtcAgi3TtUKe-23" value="" style="shape=message;whiteSpace=wrap;html=1;" vertex="1" parent="1">
          <mxGeometry x="2440" y="170" width="40" height="30" as="geometry" />
        </mxCell>
        <mxCell id="e09Jtm8NHtcAgi3TtUKe-24" value="" style="shape=message;whiteSpace=wrap;html=1;" vertex="1" parent="1">
          <mxGeometry x="2630" y="170" width="40" height="30" as="geometry" />
        </mxCell>
        <mxCell id="e09Jtm8NHtcAgi3TtUKe-25" value="Sub-Process" style="html=1;whiteSpace=wrap;rounded=1;" vertex="1" parent="1">
          <mxGeometry x="2280" y="650" width="120" height="80" as="geometry" />
        </mxCell>
        <mxCell id="e09Jtm8NHtcAgi3TtUKe-26" value="" style="html=1;shape=plus;" vertex="1" parent="e09Jtm8NHtcAgi3TtUKe-25">
          <mxGeometry x="0.5" y="1" width="14" height="14" relative="1" as="geometry">
            <mxPoint x="-7" y="-14" as="offset" />
          </mxGeometry>
        </mxCell>
        <mxCell id="e09Jtm8NHtcAgi3TtUKe-27" value="" style="shape=message;whiteSpace=wrap;html=1;" vertex="1" parent="1">
          <mxGeometry x="2320" y="770" width="40" height="30" as="geometry" />
        </mxCell>
        <mxCell id="e09Jtm8NHtcAgi3TtUKe-28" value="" style="shape=message;whiteSpace=wrap;html=1;" vertex="1" parent="1">
          <mxGeometry x="2710" y="890" width="40" height="30" as="geometry" />
        </mxCell>
        <mxCell id="e09Jtm8NHtcAgi3TtUKe-29" value="" style="shape=message;whiteSpace=wrap;html=1;" vertex="1" parent="1">
          <mxGeometry x="2880" y="890" width="40" height="30" as="geometry" />
        </mxCell>
        <mxCell id="e09Jtm8NHtcAgi3TtUKe-30" value="" style="shape=message;whiteSpace=wrap;html=1;" vertex="1" parent="1">
          <mxGeometry x="2565" y="890" width="40" height="30" as="geometry" />
        </mxCell>
        <mxCell id="e09Jtm8NHtcAgi3TtUKe-31" value="" style="shape=message;whiteSpace=wrap;html=1;" vertex="1" parent="1">
          <mxGeometry x="2565" y="590" width="40" height="30" as="geometry" />
        </mxCell>
        <mxCell id="e09Jtm8NHtcAgi3TtUKe-32" style="edgeStyle=orthogonalEdgeStyle;rounded=0;html=1;jettySize=auto;orthogonalLoop=1;" edge="1" parent="1" source="e09Jtm8NHtcAgi3TtUKe-1" target="e09Jtm8NHtcAgi3TtUKe-2">
          <mxGeometry relative="1" as="geometry" />
        </mxCell>
        <mxCell id="e09Jtm8NHtcAgi3TtUKe-33" style="edgeStyle=orthogonalEdgeStyle;rounded=0;html=1;jettySize=auto;orthogonalLoop=1;endArrow=none;endFill=0;" edge="1" parent="1" source="e09Jtm8NHtcAgi3TtUKe-4" target="e09Jtm8NHtcAgi3TtUKe-2">
          <mxGeometry relative="1" as="geometry" />
        </mxCell>
        <mxCell id="e09Jtm8NHtcAgi3TtUKe-34" style="edgeStyle=orthogonalEdgeStyle;rounded=0;html=1;jettySize=auto;orthogonalLoop=1;endArrow=none;endFill=0;" edge="1" parent="1" source="e09Jtm8NHtcAgi3TtUKe-5" target="e09Jtm8NHtcAgi3TtUKe-3">
          <mxGeometry relative="1" as="geometry" />
        </mxCell>
        <mxCell id="e09Jtm8NHtcAgi3TtUKe-35" style="edgeStyle=orthogonalEdgeStyle;rounded=0;html=1;jettySize=auto;orthogonalLoop=1;" edge="1" parent="1" source="e09Jtm8NHtcAgi3TtUKe-2" target="e09Jtm8NHtcAgi3TtUKe-3">
          <mxGeometry relative="1" as="geometry" />
        </mxCell>
        <mxCell id="e09Jtm8NHtcAgi3TtUKe-36" style="edgeStyle=orthogonalEdgeStyle;rounded=0;html=1;jettySize=auto;orthogonalLoop=1;" edge="1" parent="1" source="e09Jtm8NHtcAgi3TtUKe-12" target="e09Jtm8NHtcAgi3TtUKe-10">
          <mxGeometry relative="1" as="geometry" />
        </mxCell>
        <mxCell id="e09Jtm8NHtcAgi3TtUKe-37" style="edgeStyle=orthogonalEdgeStyle;rounded=0;html=1;jettySize=auto;orthogonalLoop=1;endArrow=none;endFill=0;" edge="1" parent="1" source="e09Jtm8NHtcAgi3TtUKe-23" target="e09Jtm8NHtcAgi3TtUKe-12">
          <mxGeometry relative="1" as="geometry" />
        </mxCell>
        <mxCell id="e09Jtm8NHtcAgi3TtUKe-38" style="edgeStyle=orthogonalEdgeStyle;rounded=0;html=1;jettySize=auto;orthogonalLoop=1;endArrow=none;endFill=0;" edge="1" parent="1" source="e09Jtm8NHtcAgi3TtUKe-24" target="e09Jtm8NHtcAgi3TtUKe-10">
          <mxGeometry relative="1" as="geometry" />
        </mxCell>
        <mxCell id="e09Jtm8NHtcAgi3TtUKe-39" style="edgeStyle=orthogonalEdgeStyle;rounded=0;html=1;jettySize=auto;orthogonalLoop=1;" edge="1" parent="1" source="e09Jtm8NHtcAgi3TtUKe-10" target="e09Jtm8NHtcAgi3TtUKe-22">
          <mxGeometry relative="1" as="geometry">
            <mxPoint x="2909.9999999999995" y="470" as="targetPoint" />
            <Array as="points">
              <mxPoint x="2900" y="285" />
            </Array>
          </mxGeometry>
        </mxCell>
        <mxCell id="e09Jtm8NHtcAgi3TtUKe-40" style="edgeStyle=orthogonalEdgeStyle;rounded=0;html=1;jettySize=auto;orthogonalLoop=1;" edge="1" parent="1" source="e09Jtm8NHtcAgi3TtUKe-14" target="e09Jtm8NHtcAgi3TtUKe-22">
          <mxGeometry relative="1" as="geometry" />
        </mxCell>
        <mxCell id="e09Jtm8NHtcAgi3TtUKe-41" style="edgeStyle=orthogonalEdgeStyle;rounded=0;html=1;jettySize=auto;orthogonalLoop=1;" edge="1" parent="1" source="e09Jtm8NHtcAgi3TtUKe-16" target="e09Jtm8NHtcAgi3TtUKe-22">
          <mxGeometry relative="1" as="geometry" />
        </mxCell>
        <mxCell id="e09Jtm8NHtcAgi3TtUKe-42" style="edgeStyle=orthogonalEdgeStyle;rounded=0;html=1;jettySize=auto;orthogonalLoop=1;" edge="1" parent="1" source="e09Jtm8NHtcAgi3TtUKe-22">
          <mxGeometry relative="1" as="geometry">
            <mxPoint x="3010" y="510" as="targetPoint" />
          </mxGeometry>
        </mxCell>
        <mxCell id="e09Jtm8NHtcAgi3TtUKe-43" style="edgeStyle=orthogonalEdgeStyle;rounded=0;html=1;jettySize=auto;orthogonalLoop=1;" edge="1" parent="1" source="e09Jtm8NHtcAgi3TtUKe-3" target="e09Jtm8NHtcAgi3TtUKe-6">
          <mxGeometry relative="1" as="geometry" />
        </mxCell>
        <mxCell id="e09Jtm8NHtcAgi3TtUKe-44" style="edgeStyle=orthogonalEdgeStyle;rounded=0;html=1;jettySize=auto;orthogonalLoop=1;" edge="1" parent="1" source="e09Jtm8NHtcAgi3TtUKe-6" target="e09Jtm8NHtcAgi3TtUKe-8">
          <mxGeometry relative="1" as="geometry" />
        </mxCell>
        <mxCell id="e09Jtm8NHtcAgi3TtUKe-45" style="edgeStyle=orthogonalEdgeStyle;rounded=0;html=1;jettySize=auto;orthogonalLoop=1;" edge="1" parent="1" source="e09Jtm8NHtcAgi3TtUKe-8" target="e09Jtm8NHtcAgi3TtUKe-9">
          <mxGeometry relative="1" as="geometry" />
        </mxCell>
        <mxCell id="e09Jtm8NHtcAgi3TtUKe-46" style="edgeStyle=orthogonalEdgeStyle;rounded=0;html=1;jettySize=auto;orthogonalLoop=1;" edge="1" parent="1" source="e09Jtm8NHtcAgi3TtUKe-9" target="e09Jtm8NHtcAgi3TtUKe-12">
          <mxGeometry relative="1" as="geometry">
            <Array as="points">
              <mxPoint x="2340" y="285" />
            </Array>
          </mxGeometry>
        </mxCell>
        <mxCell id="e09Jtm8NHtcAgi3TtUKe-47" style="edgeStyle=orthogonalEdgeStyle;rounded=0;html=1;jettySize=auto;orthogonalLoop=1;" edge="1" parent="1" source="e09Jtm8NHtcAgi3TtUKe-9" target="e09Jtm8NHtcAgi3TtUKe-25">
          <mxGeometry relative="1" as="geometry" />
        </mxCell>
        <mxCell id="e09Jtm8NHtcAgi3TtUKe-48" style="edgeStyle=orthogonalEdgeStyle;rounded=0;html=1;jettySize=auto;orthogonalLoop=1;endArrow=none;endFill=0;" edge="1" parent="1" source="e09Jtm8NHtcAgi3TtUKe-27" target="e09Jtm8NHtcAgi3TtUKe-25">
          <mxGeometry relative="1" as="geometry" />
        </mxCell>
        <mxCell id="e09Jtm8NHtcAgi3TtUKe-49" value="" style="shape=mxgraph.bpmn.shape;html=1;verticalLabelPosition=bottom;labelBackgroundColor=#ffffff;verticalAlign=top;perimeter=rhombusPerimeter;background=gateway;outline=none;symbol=parallelGw;" vertex="1" parent="1">
          <mxGeometry x="2450" y="665" width="50" height="50" as="geometry" />
        </mxCell>
        <mxCell id="e09Jtm8NHtcAgi3TtUKe-50" style="edgeStyle=orthogonalEdgeStyle;rounded=0;html=1;jettySize=auto;orthogonalLoop=1;" edge="1" parent="1" source="e09Jtm8NHtcAgi3TtUKe-49" target="e09Jtm8NHtcAgi3TtUKe-20">
          <mxGeometry relative="1" as="geometry">
            <Array as="points">
              <mxPoint x="2475" y="810" />
            </Array>
          </mxGeometry>
        </mxCell>
        <mxCell id="e09Jtm8NHtcAgi3TtUKe-51" style="edgeStyle=orthogonalEdgeStyle;rounded=0;html=1;jettySize=auto;orthogonalLoop=1;" edge="1" parent="1" source="e09Jtm8NHtcAgi3TtUKe-49" target="e09Jtm8NHtcAgi3TtUKe-14">
          <mxGeometry relative="1" as="geometry">
            <Array as="points">
              <mxPoint x="2475" y="510" />
            </Array>
          </mxGeometry>
        </mxCell>
        <mxCell id="e09Jtm8NHtcAgi3TtUKe-52" style="edgeStyle=orthogonalEdgeStyle;rounded=0;html=1;jettySize=auto;orthogonalLoop=1;endArrow=none;endFill=0;" edge="1" parent="1" source="e09Jtm8NHtcAgi3TtUKe-31" target="e09Jtm8NHtcAgi3TtUKe-14">
          <mxGeometry relative="1" as="geometry" />
        </mxCell>
        <mxCell id="e09Jtm8NHtcAgi3TtUKe-53" style="edgeStyle=orthogonalEdgeStyle;rounded=0;html=1;jettySize=auto;orthogonalLoop=1;" edge="1" parent="1" source="e09Jtm8NHtcAgi3TtUKe-25" target="e09Jtm8NHtcAgi3TtUKe-49">
          <mxGeometry relative="1" as="geometry" />
        </mxCell>
        <mxCell id="e09Jtm8NHtcAgi3TtUKe-54" style="edgeStyle=orthogonalEdgeStyle;rounded=0;html=1;jettySize=auto;orthogonalLoop=1;" edge="1" parent="1" source="e09Jtm8NHtcAgi3TtUKe-20" target="e09Jtm8NHtcAgi3TtUKe-18">
          <mxGeometry relative="1" as="geometry" />
        </mxCell>
        <mxCell id="e09Jtm8NHtcAgi3TtUKe-55" style="edgeStyle=orthogonalEdgeStyle;rounded=0;html=1;jettySize=auto;orthogonalLoop=1;endArrow=none;endFill=0;" edge="1" parent="1" source="e09Jtm8NHtcAgi3TtUKe-30" target="e09Jtm8NHtcAgi3TtUKe-20">
          <mxGeometry relative="1" as="geometry" />
        </mxCell>
        <mxCell id="e09Jtm8NHtcAgi3TtUKe-56" style="edgeStyle=orthogonalEdgeStyle;rounded=0;html=1;jettySize=auto;orthogonalLoop=1;endArrow=none;endFill=0;" edge="1" parent="1" source="e09Jtm8NHtcAgi3TtUKe-28" target="e09Jtm8NHtcAgi3TtUKe-18">
          <mxGeometry relative="1" as="geometry" />
        </mxCell>
        <mxCell id="e09Jtm8NHtcAgi3TtUKe-57" style="edgeStyle=orthogonalEdgeStyle;rounded=0;html=1;jettySize=auto;orthogonalLoop=1;endArrow=none;endFill=0;" edge="1" parent="1" source="e09Jtm8NHtcAgi3TtUKe-29" target="e09Jtm8NHtcAgi3TtUKe-16">
          <mxGeometry relative="1" as="geometry" />
        </mxCell>
        <mxCell id="e09Jtm8NHtcAgi3TtUKe-58" style="edgeStyle=orthogonalEdgeStyle;rounded=0;html=1;jettySize=auto;orthogonalLoop=1;" edge="1" parent="1" source="e09Jtm8NHtcAgi3TtUKe-18" target="e09Jtm8NHtcAgi3TtUKe-16">
          <mxGeometry relative="1" as="geometry" />
        </mxCell>
        <mxCell id="e09Jtm8NHtcAgi3TtUKe-92" style="edgeStyle=orthogonalEdgeStyle;rounded=0;orthogonalLoop=1;jettySize=auto;html=1;" edge="1" parent="1" source="e09Jtm8NHtcAgi3TtUKe-60" target="e09Jtm8NHtcAgi3TtUKe-69">
          <mxGeometry relative="1" as="geometry" />
        </mxCell>
        <mxCell id="e09Jtm8NHtcAgi3TtUKe-93" value="no" style="edgeLabel;html=1;align=center;verticalAlign=middle;resizable=0;points=[];" vertex="1" connectable="0" parent="e09Jtm8NHtcAgi3TtUKe-92">
          <mxGeometry x="-0.3054" y="-6" relative="1" as="geometry">
            <mxPoint as="offset" />
          </mxGeometry>
        </mxCell>
        <mxCell id="e09Jtm8NHtcAgi3TtUKe-60" value="Customer Database" style="rhombus;whiteSpace=wrap;html=1;" vertex="1" parent="1">
          <mxGeometry x="360" y="250" width="80" height="80" as="geometry" />
        </mxCell>
        <mxCell id="e09Jtm8NHtcAgi3TtUKe-67" style="edgeStyle=orthogonalEdgeStyle;rounded=0;orthogonalLoop=1;jettySize=auto;html=1;entryX=0;entryY=0.5;entryDx=0;entryDy=0;" edge="1" parent="1" source="e09Jtm8NHtcAgi3TtUKe-73" target="e09Jtm8NHtcAgi3TtUKe-66">
          <mxGeometry relative="1" as="geometry" />
        </mxCell>
        <mxCell id="e09Jtm8NHtcAgi3TtUKe-77" style="edgeStyle=orthogonalEdgeStyle;rounded=0;orthogonalLoop=1;jettySize=auto;html=1;entryX=0.5;entryY=0;entryDx=0;entryDy=0;" edge="1" parent="1" source="e09Jtm8NHtcAgi3TtUKe-66" target="e09Jtm8NHtcAgi3TtUKe-76">
          <mxGeometry relative="1" as="geometry" />
        </mxCell>
        <mxCell id="e09Jtm8NHtcAgi3TtUKe-81" value="questionable" style="edgeLabel;html=1;align=center;verticalAlign=middle;resizable=0;points=[];" vertex="1" connectable="0" parent="e09Jtm8NHtcAgi3TtUKe-77">
          <mxGeometry x="-0.1294" y="2" relative="1" as="geometry">
            <mxPoint as="offset" />
          </mxGeometry>
        </mxCell>
        <mxCell id="e09Jtm8NHtcAgi3TtUKe-100" style="edgeStyle=orthogonalEdgeStyle;rounded=0;orthogonalLoop=1;jettySize=auto;html=1;" edge="1" parent="1" source="e09Jtm8NHtcAgi3TtUKe-66" target="e09Jtm8NHtcAgi3TtUKe-82">
          <mxGeometry relative="1" as="geometry" />
        </mxCell>
        <mxCell id="e09Jtm8NHtcAgi3TtUKe-101" value="positive" style="edgeLabel;html=1;align=center;verticalAlign=middle;resizable=0;points=[];" vertex="1" connectable="0" parent="e09Jtm8NHtcAgi3TtUKe-100">
          <mxGeometry x="-0.1701" y="2" relative="1" as="geometry">
            <mxPoint as="offset" />
          </mxGeometry>
        </mxCell>
        <mxCell id="e09Jtm8NHtcAgi3TtUKe-66" value="Credit Worthiness" style="rhombus;whiteSpace=wrap;html=1;" vertex="1" parent="1">
          <mxGeometry x="540" y="245" width="80" height="80" as="geometry" />
        </mxCell>
        <mxCell id="e09Jtm8NHtcAgi3TtUKe-75" style="edgeStyle=orthogonalEdgeStyle;rounded=0;orthogonalLoop=1;jettySize=auto;html=1;entryX=0.5;entryY=1;entryDx=0;entryDy=0;" edge="1" parent="1" source="e09Jtm8NHtcAgi3TtUKe-69" target="7a84cebc1def654-1">
          <mxGeometry relative="1" as="geometry">
            <mxPoint x="285" y="345" as="targetPoint" />
          </mxGeometry>
        </mxCell>
        <mxCell id="e09Jtm8NHtcAgi3TtUKe-69" value="Add Customer" style="rounded=1;whiteSpace=wrap;html=1;" vertex="1" parent="1">
          <mxGeometry x="340" y="440" width="120" height="60" as="geometry" />
        </mxCell>
        <mxCell id="e09Jtm8NHtcAgi3TtUKe-74" value="" style="edgeStyle=orthogonalEdgeStyle;rounded=0;orthogonalLoop=1;jettySize=auto;html=1;entryX=0;entryY=0.5;entryDx=0;entryDy=0;" edge="1" parent="1" target="e09Jtm8NHtcAgi3TtUKe-73">
          <mxGeometry relative="1" as="geometry">
            <mxPoint x="430" y="285.0476190476189" as="sourcePoint" />
            <mxPoint x="540" y="285" as="targetPoint" />
          </mxGeometry>
        </mxCell>
        <mxCell id="e09Jtm8NHtcAgi3TtUKe-73" value="yes" style="text;strokeColor=none;align=center;fillColor=none;html=1;verticalAlign=middle;whiteSpace=wrap;rounded=0;" vertex="1" parent="1">
          <mxGeometry x="450" y="267.5" width="60" height="30" as="geometry" />
        </mxCell>
        <mxCell id="e09Jtm8NHtcAgi3TtUKe-85" style="edgeStyle=orthogonalEdgeStyle;rounded=0;orthogonalLoop=1;jettySize=auto;html=1;entryX=0;entryY=0.5;entryDx=0;entryDy=0;" edge="1" parent="1" source="e09Jtm8NHtcAgi3TtUKe-76" target="e09Jtm8NHtcAgi3TtUKe-84">
          <mxGeometry relative="1" as="geometry" />
        </mxCell>
        <mxCell id="e09Jtm8NHtcAgi3TtUKe-86" value="no" style="edgeLabel;html=1;align=center;verticalAlign=middle;resizable=0;points=[];" vertex="1" connectable="0" parent="e09Jtm8NHtcAgi3TtUKe-85">
          <mxGeometry x="0.0474" y="2" relative="1" as="geometry">
            <mxPoint as="offset" />
          </mxGeometry>
        </mxCell>
        <mxCell id="e09Jtm8NHtcAgi3TtUKe-89" style="edgeStyle=orthogonalEdgeStyle;rounded=0;orthogonalLoop=1;jettySize=auto;html=1;entryX=0;entryY=0.5;entryDx=0;entryDy=0;" edge="1" parent="1" source="e09Jtm8NHtcAgi3TtUKe-76" target="e09Jtm8NHtcAgi3TtUKe-83">
          <mxGeometry relative="1" as="geometry">
            <mxPoint x="580" y="615" as="targetPoint" />
            <Array as="points">
              <mxPoint x="580" y="590" />
            </Array>
          </mxGeometry>
        </mxCell>
        <mxCell id="e09Jtm8NHtcAgi3TtUKe-90" value="yes" style="edgeLabel;html=1;align=center;verticalAlign=middle;resizable=0;points=[];" vertex="1" connectable="0" parent="e09Jtm8NHtcAgi3TtUKe-89">
          <mxGeometry x="0.1496" relative="1" as="geometry">
            <mxPoint as="offset" />
          </mxGeometry>
        </mxCell>
        <mxCell id="e09Jtm8NHtcAgi3TtUKe-76" value="Check Proceed" style="rhombus;whiteSpace=wrap;html=1;" vertex="1" parent="1">
          <mxGeometry x="540" y="425" width="80" height="80" as="geometry" />
        </mxCell>
        <mxCell id="e09Jtm8NHtcAgi3TtUKe-95" style="edgeStyle=orthogonalEdgeStyle;rounded=0;orthogonalLoop=1;jettySize=auto;html=1;entryX=0;entryY=0.5;entryDx=0;entryDy=0;" edge="1" parent="1" source="e09Jtm8NHtcAgi3TtUKe-82" target="e09Jtm8NHtcAgi3TtUKe-94">
          <mxGeometry relative="1" as="geometry" />
        </mxCell>
        <mxCell id="e09Jtm8NHtcAgi3TtUKe-82" value="Proceed Order" style="rounded=1;whiteSpace=wrap;html=1;" vertex="1" parent="1">
          <mxGeometry x="710" y="250" width="120" height="60" as="geometry" />
        </mxCell>
        <mxCell id="e09Jtm8NHtcAgi3TtUKe-98" style="edgeStyle=orthogonalEdgeStyle;rounded=0;orthogonalLoop=1;jettySize=auto;html=1;entryX=0.5;entryY=1;entryDx=0;entryDy=0;" edge="1" parent="1" source="e09Jtm8NHtcAgi3TtUKe-83" target="7a84cebc1def654-24">
          <mxGeometry relative="1" as="geometry">
            <mxPoint x="1280" y="495" as="targetPoint" />
          </mxGeometry>
        </mxCell>
        <mxCell id="e09Jtm8NHtcAgi3TtUKe-83" value="Operate on COD" style="rounded=1;whiteSpace=wrap;html=1;" vertex="1" parent="1">
          <mxGeometry x="790" y="560" width="120" height="60" as="geometry" />
        </mxCell>
        <mxCell id="e09Jtm8NHtcAgi3TtUKe-84" value="Send Message:&quot;Cannot fulfill&quot;" style="rounded=1;whiteSpace=wrap;html=1;" vertex="1" parent="1">
          <mxGeometry x="790" y="435" width="120" height="60" as="geometry" />
        </mxCell>
        <mxCell id="e09Jtm8NHtcAgi3TtUKe-94" value="Create Requirement List" style="rounded=1;whiteSpace=wrap;html=1;" vertex="1" parent="1">
          <mxGeometry x="920" y="250" width="120" height="60" as="geometry" />
        </mxCell>
        <mxCell id="e09Jtm8NHtcAgi3TtUKe-96" style="edgeStyle=orthogonalEdgeStyle;rounded=0;orthogonalLoop=1;jettySize=auto;html=1;entryX=0.526;entryY=0.15;entryDx=0;entryDy=0;entryPerimeter=0;" edge="1" parent="1" source="e09Jtm8NHtcAgi3TtUKe-94" target="7a84cebc1def654-24">
          <mxGeometry relative="1" as="geometry" />
        </mxCell>
        <mxCell id="e09Jtm8NHtcAgi3TtUKe-97" style="edgeStyle=orthogonalEdgeStyle;rounded=0;orthogonalLoop=1;jettySize=auto;html=1;entryX=0.196;entryY=0.506;entryDx=0;entryDy=0;entryPerimeter=0;" edge="1" parent="1" source="e09Jtm8NHtcAgi3TtUKe-84" target="7a84cebc1def654-24">
          <mxGeometry relative="1" as="geometry" />
        </mxCell>
        <mxCell id="e09Jtm8NHtcAgi3TtUKe-105" value="Company Side" style="swimlane;horizontal=0;whiteSpace=wrap;html=1;" vertex="1" parent="1">
          <mxGeometry x="200" y="210" width="960" height="310" as="geometry" />
        </mxCell>
        <mxCell id="e09Jtm8NHtcAgi3TtUKe-106" value="COD" style="swimlane;horizontal=0;whiteSpace=wrap;html=1;" vertex="1" parent="1">
          <mxGeometry x="200" y="520" width="960" height="190" as="geometry" />
        </mxCell>
      </root>
    </mxGraphModel>
  </diagram>
</mxfile>
